<?xml version="1.0" encoding="utf-8"?>
<!-- Generator: Adobe Illustrator 26.3.1, SVG Export Plug-In . SVG Version: 6.00 Build 0)  -->
<svg version="1.1" id="Layer_1" xmlns="http://www.w3.org/2000/svg" xmlns:xlink="http://www.w3.org/1999/xlink" x="0px" y="0px"
	 viewBox="0 0 1920 1080" style="enable-background:new 0 0 1920 1080;" xml:space="preserve">
<style type="text/css">
	.st0{fill:#1D1D1D;}
</style>
<path class="st0" d="M864.09,700.45c12.57-12.95,22.11-27.43,32.45-41.27c8.88-11.89,18.06-23.47,30.03-32.54
	c28.99-21.96,61.8-3.94,72.95,16.46c8.72,15.94,5.32,31.38-9.51,43.36c-7.16,5.79-15.08,10.3-23.32,14.32
	c-0.65,0.32-1.75,0.11-1.71,1.71c4.31,1.12,8.89,1.66,13.1,3.54c8.66,3.87,12.83,10.81,12.32,20.25c-0.14,2.68-0.85,3.79-3.78,3.78
	c-27.16-0.09-54.32,0.35-81.47-0.19c-16.62-0.33-30.73-6.88-40.33-21.18c-1.57-2.35-2.55-1.62-4.14-0.17
	c-4.93,4.49-10.2,8.51-16.17,11.6c-19.05,9.88-37.96,4.31-47.61-14.96c-11.55-23.06-9.11-46.03,2.26-68.52
	c0.9-1.77,1.99-3.46,3.13-5.09c0.52-0.74,1.13-1.89,2.37-1.24c1.43,0.75,0.96,1.9,0.39,2.99c-2.08,3.97-4.58,7.77-6.19,11.92
	c-8.22,21.2-9.28,42.25,3.38,62.19c8.72,13.73,22.39,17.53,37.37,11.3c7.64-3.18,13.98-8.28,20.04-13.78
	c1.28-1.16,1.66-2.1,0.98-3.84c-11.88-30.48-5.29-58.75,10.97-85.53c11.04-18.18,26.79-32.14,42.97-45.58
	c13.57-11.27,27.68-21.88,40.78-33.72c17.16-15.49,31.83-32.65,37.23-55.97c0.32-1.37,0.2-3.43,2.48-2.7
	c1.78,0.57,0.97,2.21,0.7,3.45c-3.22,14.62-10.24,27.28-19.72,38.72c-14.14,17.05-31.66,30.39-48.71,44.23
	c-17.72,14.39-35.45,28.78-48.94,47.51c-15.82,21.95-23.08,46.21-19.22,73.33C859.92,690.07,861.32,695.15,864.09,700.45z
	 M955.28,619.92c-6.38-0.1-12.26,1.38-17.88,4.18c-13.03,6.49-22.42,17.02-31.26,28.12c-13.14,16.51-24.22,34.62-38.93,49.89
	c-1.91,1.99-0.68,3.21,0.34,4.68c9.64,13.9,23.46,19.69,39.83,19.85c23.98,0.22,47.96,0.06,71.93,0.07c1.49,0,3.25-0.34,4.42,0.31
	c3.26,1.81,3.37-0.46,3.42-2.44c0.15-6.62-2.92-11.37-8.69-14.54c-6.34-3.48-13.29-3.95-20.27-4.45c-1.46-0.1-3.82,0.82-4.14-1.51
	c-0.31-2.2,2.13-2.23,3.52-2.84c10.68-4.68,21-9.96,30.17-17.27c13.16-10.48,16.89-23.75,9.7-37.42
	C988.55,629.71,973.96,621.4,955.28,619.92z"/>
<path class="st0" d="M1046.81,730.01c-6.33,0-12.67,0.15-18.99-0.08c-2-0.07-5.67,1.61-5.68-1.75c-0.01-2.92,3.52-1.39,5.38-1.42
	c12.49-0.16,24.99-0.25,37.48,0.01c4.05,0.08,4.4-1.5,3.6-4.69c-1.99-7.95-9.4-13.86-18.05-13.73c-2.9,0.05-4.03-0.83-5.02-3.41
	c-3.61-9.35-6.44-18.91-7.45-28.88c-1.88-18.49,3.62-35.25,12.28-51.29c8.36-15.48,16.71-30.98,22.56-47.68
	c11.22-32.04,13.87-64.52,5.53-97.67c-1.67-6.65-2.12-13.43-1.83-20.31c0.35-8.33,4.01-14.69,10.96-19.03
	c5.34-3.34,11.04-6.12,16.42-9.41c15.66-9.59,22.91-23.68,23.11-42.02c0.1-9.38-3.9-16.6-9.08-23.68c-1.73-2.37-3.34-2.74-6.2-1.44
	c-12.88,5.88-25.99,10.97-40.64,9.69c-6.85-0.6-13.29-2.95-19.99-4.19c-14.94-2.76-29.41-1.48-43.65,3.89
	c-3.72,1.4-4.83,2.61-3.29,6.62c4.89,12.77,8.31,25.94,9.46,39.63c0.85,10.06,0.3,19.95-3.43,29.47
	c-5.02,12.83-16.59,17.51-29.19,11.88c-17.12-7.65-26.16-28.18-19.66-46.03c6.26-17.18,17.56-30.41,33.66-39.23
	c2.89-1.58,3.29-2.86,1.95-5.68c-2.42-5.09-4.52-10.33-6.7-15.54c-0.55-1.31-1.72-3.09,0.13-3.92c1.97-0.88,2.33,1.28,2.9,2.56
	c2.28,5.16,4.59,10.32,6.69,15.56c0.93,2.33,1.77,3.52,4.61,2.32c18.37-7.73,37.18-8.21,56.17-2.71c12.72,3.68,25.01,2.3,37.17-2.19
	c3.43-1.27,6.82-2.63,10.17-4.09c8.84-3.85,9.42-3.76,14.74,4.22c14.08,21.14,7.48,51.46-14.16,65.84
	c-3.45,2.29-7.09,4.33-10.76,6.27c-16.76,8.84-20.66,16.64-17.29,35.24c2.46,13.57,5.56,26.99,5.9,40.93
	c0.85,35.46-9.53,67.83-26.01,98.68c-7.03,13.16-14.63,26.1-17.92,40.93c-3.79,17.12-0.25,33.34,5.65,49.33
	c0.89,2.42,2.87,1.8,4.55,2.05c11.28,1.67,18.87,9.57,19.49,20.02c0.21,3.52-0.58,5.16-4.56,5
	C1060.81,729.79,1053.81,730.01,1046.81,730.01z M1010.7,422.74c-0.23-12.78-4.56-28.08-9.8-43.2c-0.97-2.79-2.1-2.56-4.24-1.37
	c-15.15,8.42-25.76,20.89-31.88,36.9c-6,15.67,1.13,33.53,15.79,41.47c11.81,6.39,22.54,2.36,27.15-10.32
	C1010.07,439.75,1010.73,432.98,1010.7,422.74z"/>
</svg>
